<?xml version="1.0" encoding="UTF-8" standalone="no"?>
<!-- Created with Inkscape (http://www.inkscape.org/) -->

<svg
   width="106.14452mm"
   height="102.74745mm"
   viewBox="0 0 106.14452 102.74745"
   version="1.1"
   id="svg1"
   xml:space="preserve"
   xmlns="http://www.w3.org/2000/svg"
   xmlns:svg="http://www.w3.org/2000/svg"><defs
     id="defs1" /><g
     id="layer1"
     transform="translate(-51.927739,-82.202698)"><path
       style="fill:#000000"
       d="m 106.53362,184.13151 c -9.187218,-7.39265 -17.551238,-15.11216 -25.693408,-23.71352 -5.79216,-6.11883 -11.609736,-12.94701 -16.88767,-19.82133 -4.372521,-5.69506 -6.774241,-9.28239 -8.587777,-12.82715 -1.952976,-3.81731 -2.981171,-7.07759 -3.37707,-10.70828 -0.08032,-0.73657 -0.07981,-3.41708 7.83e-4,-4.14661 0.454184,-4.11123 2.145519,-7.95712 5.01987,-11.41457 0.618236,-0.74365 2.369854,-2.493434 3.121807,-3.118524 2.953535,-2.45527 6.29111,-4.24346 9.822351,-5.26257 4.852486,-1.40042 9.606856,-1.31658 14.419166,0.25427 3.79164,1.23769 7.39436,3.35302 10.54899,6.19384 0.63208,0.569204 2.11792,2.062254 2.6492,2.662064 2.28618,2.58103 4.275708,5.6464 5.687498,8.76298 1.19851,2.64576 1.97313,5.11756 2.55641,8.15743 0.028,0.14609 0.0573,0.25887 0.0651,0.25062 0.008,-0.008 0.12021,-0.42511 0.24988,-0.92635 2.07705,-8.02902 3.23154,-11.80143 4.79713,-15.67509 0.70461,-1.74338 1.65045,-3.759834 2.41311,-5.144514 2.67381,-4.8546 6.07962,-8.65243 10.27207,-11.454425 3.31632,-2.21642 6.87032,-3.54704 10.52015,-3.93874 0.81974,-0.088 3.11863,-0.0737 3.91877,0.0243 2.16629,0.26534 4.04147,0.80768 5.92373,1.71326 3.953,1.90184 7.30293,5.090995 9.93574,9.458865 0.45925,0.7619 1.4296,2.68036 1.78881,3.53662 1.20448,2.87112 1.91134,5.606054 2.24813,8.698164 0.11955,1.09764 0.1643,3.57416 0.0887,4.9071 -0.27631,4.86984 -1.45815,9.83806 -3.61834,15.21079 -1.78569,4.4413 -4.20289,9.11489 -7.85975,15.19664 -3.89284,6.47421 -8.09921,11.9371 -14.31521,18.59139 -2.05238,2.19711 -3.8021,3.98196 -7.70244,7.85714 -10.08392,10.01887 -12.72281,12.73683 -16.15127,16.6352 -0.39673,0.45111 -0.73684,0.83756 -0.75579,0.85876 -0.019,0.0212 -0.51333,-0.34678 -1.09862,-0.81774 z"
       id="path1" /></g></svg>
